STARTFONT 2.1
FONT -ibm-courier-bold-r-normal--12-120-100-100-m-90-iso8859-2
SIZE 12 100 100
FONTBOUNDINGBOX 14 20 -1 -3
COMMENT $Header: courB12.bdf,v 1.1 96/01/22 23:46:51 peterlin Exp $
COMMENT 
COMMENT Copyright International Business Machines,Corp. 1991
COMMENT IBM Courier is a Trademark of the IBM Corporation.
COMMENT 
COMMENT Automatic rendering from Adobe Type 1 outline:
COMMENT Primoz Peterlin <primoz.peterlin@biofiz.mf.uni-lj.si>
COMMENT courb.pfa rendered at 14.000000 points
COMMENT Checksum eb69a063
STARTPROPERTIES 3
FONT_ASCENT 16
FONT_DESCENT 3
DEFAULT_CHAR 32
ENDPROPERTIES
CHARS 191
STARTCHAR space
ENCODING 32
SWIDTH 614 0
DWIDTH 12 0
BBX 0 0 0 1
BITMAP
ENDCHAR
STARTCHAR exclam
ENCODING 33
SWIDTH 614 0
DWIDTH 12 0
BBX 3 11 4 1
BITMAP
60
60
60
60
60
60
60
60
e0
e0
e0
ENDCHAR
STARTCHAR quotedbl
ENCODING 34
SWIDTH 614 0
DWIDTH 12 0
BBX 6 6 3 6
BITMAP
d8
d8
d8
d8
d8
d8
ENDCHAR
STARTCHAR numbersign
ENCODING 35
SWIDTH 614 0
DWIDTH 12 0
BBX 10 14 1 0
BITMAP
3300
3300
3300
3300
ffc0
ffc0
3300
3300
3300
ffc0
ffc0
6300
6300
6300
ENDCHAR
STARTCHAR dollar
ENCODING 36
SWIDTH 614 0
DWIDTH 12 0
BBX 8 15 2 -1
BITMAP
18
18
3e
6e
de
de
fc
3c
1a
db
d3
ff
fc
18
18
ENDCHAR
STARTCHAR percent
ENCODING 37
SWIDTH 614 0
DWIDTH 12 0
BBX 11 12 0 1
BITMAP
3800
fc00
cc00
cc00
79c0
7fc0
7f80
33c0
0660
0660
07e0
03c0
ENDCHAR
STARTCHAR ampersand
ENCODING 38
SWIDTH 614 0
DWIDTH 12 0
BBX 9 11 2 1
BITMAP
3800
7c00
6400
6000
3000
7300
ff00
dc00
ce00
7f80
7780
ENDCHAR
STARTCHAR quoteright
ENCODING 39
SWIDTH 614 0
DWIDTH 12 0
BBX 4 5 3 7
BITMAP
70
70
60
60
c0
ENDCHAR
STARTCHAR parenleft
ENCODING 40
SWIDTH 614 0
DWIDTH 12 0
BBX 4 14 5 -1
BITMAP
30
20
60
60
c0
c0
c0
c0
c0
c0
60
60
30
30
ENDCHAR
STARTCHAR parenright
ENCODING 41
SWIDTH 614 0
DWIDTH 12 0
BBX 4 14 2 -1
BITMAP
c0
60
60
20
30
30
30
30
30
30
20
60
60
40
ENDCHAR
STARTCHAR asterisk
ENCODING 42
SWIDTH 614 0
DWIDTH 12 0
BBX 8 8 2 4
BITMAP
18
18
ff
ff
3c
3c
66
24
ENDCHAR
STARTCHAR plus
ENCODING 43
SWIDTH 614 0
DWIDTH 12 0
BBX 9 10 1 2
BITMAP
0c00
0c00
0c00
0c00
ff80
ff80
0c00
0c00
0c00
0c00
ENDCHAR
STARTCHAR comma
ENCODING 44
SWIDTH 614 0
DWIDTH 12 0
BBX 4 5 3 -1
BITMAP
70
60
60
60
c0
ENDCHAR
STARTCHAR minus
ENCODING 45
SWIDTH 614 0
DWIDTH 12 0
BBX 9 2 1 6
BITMAP
ff80
ff80
ENDCHAR
STARTCHAR period
ENCODING 46
SWIDTH 614 0
DWIDTH 12 0
BBX 4 3 4 1
BITMAP
60
f0
70
ENDCHAR
STARTCHAR slash
ENCODING 47
SWIDTH 614 0
DWIDTH 12 0
BBX 9 16 1 -1
BITMAP
0180
0100
0300
0200
0600
0600
0c00
0c00
1800
1800
3000
3000
6000
6000
4000
c000
ENDCHAR
STARTCHAR zero
ENCODING 48
SWIDTH 614 0
DWIDTH 12 0
BBX 8 12 2 1
BITMAP
3c
7e
c6
c3
c3
c3
c3
c3
c3
e6
7e
3c
ENDCHAR
STARTCHAR one
ENCODING 49
SWIDTH 614 0
DWIDTH 12 0
BBX 8 12 2 1
BITMAP
38
f8
d8
18
18
18
18
18
18
18
ff
ff
ENDCHAR
STARTCHAR two
ENCODING 50
SWIDTH 614 0
DWIDTH 12 0
BBX 8 12 1 1
BITMAP
3c
7e
63
03
03
03
06
1c
38
73
ff
ff
ENDCHAR
STARTCHAR three
ENCODING 51
SWIDTH 614 0
DWIDTH 12 0
BBX 8 12 1 1
BITMAP
3c
fe
43
03
06
1c
1e
03
03
03
fe
3c
ENDCHAR
STARTCHAR four
ENCODING 52
SWIDTH 614 0
DWIDTH 12 0
BBX 9 12 1 1
BITMAP
0e00
1e00
1e00
3600
2600
6600
c600
ff80
ff80
0600
1f80
1f80
ENDCHAR
STARTCHAR five
ENCODING 53
SWIDTH 614 0
DWIDTH 12 0
BBX 9 12 1 1
BITMAP
7f00
7f00
6000
6000
7e00
7f00
4380
0180
0180
0380
ff00
3e00
ENDCHAR
STARTCHAR six
ENCODING 54
SWIDTH 614 0
DWIDTH 12 0
BBX 8 12 2 1
BITMAP
1f
3f
60
c0
f8
fc
e6
c6
c6
c6
7c
38
ENDCHAR
STARTCHAR seven
ENCODING 55
SWIDTH 614 0
DWIDTH 12 0
BBX 8 12 2 1
BITMAP
ff
ff
c2
06
06
0c
0c
0c
18
18
38
30
ENDCHAR
STARTCHAR eight
ENCODING 56
SWIDTH 614 0
DWIDTH 12 0
BBX 8 12 2 1
BITMAP
3c
7e
c3
c3
c7
7e
7e
c7
c3
c3
7e
3c
ENDCHAR
STARTCHAR nine
ENCODING 57
SWIDTH 614 0
DWIDTH 12 0
BBX 8 12 1 1
BITMAP
3c
7e
e7
c3
c3
e7
7f
3f
02
06
7c
f8
ENDCHAR
STARTCHAR colon
ENCODING 58
SWIDTH 614 0
DWIDTH 12 0
BBX 4 8 4 1
BITMAP
60
f0
70
00
00
60
f0
70
ENDCHAR
STARTCHAR semicolon
ENCODING 59
SWIDTH 614 0
DWIDTH 12 0
BBX 5 10 3 -1
BITMAP
30
78
70
00
00
38
70
60
60
c0
ENDCHAR
STARTCHAR less
ENCODING 60
SWIDTH 614 0
DWIDTH 12 0
BBX 10 9 0 2
BITMAP
00c0
03c0
0f00
3c00
e000
3c00
0f00
03c0
0040
ENDCHAR
STARTCHAR equal
ENCODING 61
SWIDTH 614 0
DWIDTH 12 0
BBX 9 6 1 4
BITMAP
ff80
ff80
0000
0000
ff80
ff80
ENDCHAR
STARTCHAR greater
ENCODING 62
SWIDTH 614 0
DWIDTH 12 0
BBX 10 10 1 2
BITMAP
4000
e000
7800
1e00
0380
0780
1e00
7800
e000
4000
ENDCHAR
STARTCHAR question
ENCODING 63
SWIDTH 614 0
DWIDTH 12 0
BBX 7 11 2 1
BITMAP
78
fe
c6
06
0e
38
30
00
38
38
38
ENDCHAR
STARTCHAR at
ENCODING 64
SWIDTH 614 0
DWIDTH 12 0
BBX 11 11 0 1
BITMAP
1f00
3fc0
67e0
ef60
db60
db60
dee0
ddc0
6800
7fc0
1f80
ENDCHAR
STARTCHAR A
ENCODING 65
SWIDTH 614 0
DWIDTH 12 0
BBX 12 11 0 1
BITMAP
3e00
3e00
0700
0b00
0980
1980
3fc0
3fc0
70e0
f9f0
f9f0
ENDCHAR
STARTCHAR B
ENCODING 66
SWIDTH 614 0
DWIDTH 12 0
BBX 10 11 1 1
BITMAP
fe00
ff80
6180
6180
7f00
7f80
61c0
60c0
60c0
ff80
ff00
ENDCHAR
STARTCHAR C
ENCODING 67
SWIDTH 614 0
DWIDTH 12 0
BBX 11 11 1 1
BITMAP
1e80
7fc0
61c0
c0c0
c000
c000
c000
c000
60c0
3fc0
1f00
ENDCHAR
STARTCHAR D
ENCODING 68
SWIDTH 614 0
DWIDTH 12 0
BBX 11 11 0 1
BITMAP
ff00
ffc0
30c0
3060
3060
3060
3060
3060
30c0
ffc0
ff00
ENDCHAR
STARTCHAR E
ENCODING 69
SWIDTH 614 0
DWIDTH 12 0
BBX 10 11 1 1
BITMAP
ffc0
ffc0
60c0
66c0
7e80
7e00
6600
66c0
60c0
ffc0
ffc0
ENDCHAR
STARTCHAR F
ENCODING 70
SWIDTH 614 0
DWIDTH 12 0
BBX 10 11 1 1
BITMAP
ffc0
ffc0
60c0
66c0
7ec0
7e00
6600
6000
6000
f800
f800
ENDCHAR
STARTCHAR G
ENCODING 71
SWIDTH 614 0
DWIDTH 12 0
BBX 10 11 1 1
BITMAP
1f80
7f80
6180
c180
c000
c7c0
c7c0
c180
6180
7f80
1f00
ENDCHAR
STARTCHAR H
ENCODING 72
SWIDTH 614 0
DWIDTH 12 0
BBX 10 11 1 1
BITMAP
f7c0
f7c0
6180
6180
7f80
7f80
6180
6180
6180
f7c0
f7c0
ENDCHAR
STARTCHAR I
ENCODING 73
SWIDTH 614 0
DWIDTH 12 0
BBX 8 11 2 1
BITMAP
ff
ff
18
18
18
18
18
18
18
ff
ff
ENDCHAR
STARTCHAR J
ENCODING 74
SWIDTH 614 0
DWIDTH 12 0
BBX 10 11 1 1
BITMAP
1fc0
1fc0
0300
0300
0300
c300
c300
c300
c300
fe00
3c00
ENDCHAR
STARTCHAR K
ENCODING 75
SWIDTH 614 0
DWIDTH 12 0
BBX 10 11 1 1
BITMAP
fbc0
fbc0
6300
6600
7c00
7c00
7600
6300
6100
f9c0
f8c0
ENDCHAR
STARTCHAR L
ENCODING 76
SWIDTH 614 0
DWIDTH 12 0
BBX 10 11 1 1
BITMAP
fc00
fc00
3000
3000
3000
3000
30c0
30c0
30c0
ffc0
ffc0
ENDCHAR
STARTCHAR M
ENCODING 77
SWIDTH 614 0
DWIDTH 12 0
BBX 11 11 0 1
BITMAP
f0e0
f1e0
71c0
7940
6bc0
6ac0
6ec0
66c0
60c0
f9e0
f9e0
ENDCHAR
STARTCHAR N
ENCODING 78
SWIDTH 614 0
DWIDTH 12 0
BBX 11 11 0 1
BITMAP
f1e0
f9e0
78c0
6cc0
6cc0
66c0
66c0
63c0
61c0
f9c0
f8c0
ENDCHAR
STARTCHAR O
ENCODING 79
SWIDTH 614 0
DWIDTH 12 0
BBX 11 11 0 1
BITMAP
1f00
3f80
70c0
e0e0
c060
c060
c060
e0e0
71c0
3f80
1f00
ENDCHAR
STARTCHAR P
ENCODING 80
SWIDTH 614 0
DWIDTH 12 0
BBX 9 11 2 1
BITMAP
fe00
ff00
6180
6180
6180
7f00
7e00
6000
6000
f800
f800
ENDCHAR
STARTCHAR Q
ENCODING 81
SWIDTH 614 0
DWIDTH 12 0
BBX 10 13 1 -1
BITMAP
3e00
7f80
6180
c0c0
c0c0
c0c0
c0c0
c0c0
6180
7f80
3e00
1f80
3f80
ENDCHAR
STARTCHAR R
ENCODING 82
SWIDTH 614 0
DWIDTH 12 0
BBX 10 11 1 1
BITMAP
ff00
ff80
6180
6180
7f00
7c00
6600
6700
6300
f1c0
f1c0
ENDCHAR
STARTCHAR S
ENCODING 83
SWIDTH 614 0
DWIDTH 12 0
BBX 9 11 1 1
BITMAP
3d00
7f80
e380
c180
f000
3f00
0380
6180
6180
7f00
7e00
ENDCHAR
STARTCHAR T
ENCODING 84
SWIDTH 614 0
DWIDTH 12 0
BBX 10 11 1 1
BITMAP
ffc0
ffc0
ccc0
ccc0
ccc0
0c00
0c00
0c00
0c00
3f00
3f00
ENDCHAR
STARTCHAR U
ENCODING 85
SWIDTH 614 0
DWIDTH 12 0
BBX 11 11 0 1
BITMAP
fbe0
fbe0
60c0
60c0
60c0
60c0
60c0
60c0
71c0
3f80
1f00
ENDCHAR
STARTCHAR V
ENCODING 86
SWIDTH 614 0
DWIDTH 12 0
BBX 12 11 0 1
BITMAP
f9f0
f9f0
30e0
30c0
30c0
1980
1980
0b00
0f00
0e00
0600
ENDCHAR
STARTCHAR W
ENCODING 87
SWIDTH 614 0
DWIDTH 12 0
BBX 11 11 0 1
BITMAP
f1e0
f1e0
4440
4640
6e40
6bc0
6b80
3b80
3180
3180
2080
ENDCHAR
STARTCHAR X
ENCODING 88
SWIDTH 614 0
DWIDTH 12 0
BBX 11 11 0 1
BITMAP
79e0
79e0
1980
1b00
0e00
0600
0b00
1980
3080
f9e0
f9e0
ENDCHAR
STARTCHAR Y
ENCODING 89
SWIDTH 614 0
DWIDTH 12 0
BBX 10 11 1 1
BITMAP
f3c0
f3c0
2100
3300
1e00
1e00
0c00
0c00
0c00
3f00
3f00
ENDCHAR
STARTCHAR Z
ENCODING 90
SWIDTH 614 0
DWIDTH 12 0
BBX 9 11 1 1
BITMAP
ff80
ff80
c300
c600
0c00
1800
1980
3180
6180
ff80
ff80
ENDCHAR
STARTCHAR bracketleft
ENCODING 91
SWIDTH 614 0
DWIDTH 12 0
BBX 4 15 5 -1
BITMAP
f0
f0
c0
c0
c0
c0
c0
c0
c0
c0
c0
c0
c0
f0
f0
ENDCHAR
STARTCHAR backslash
ENCODING 92
SWIDTH 614 0
DWIDTH 12 0
BBX 9 16 1 -1
BITMAP
c000
c000
6000
6000
3000
3000
1800
1800
0c00
0c00
0600
0600
0300
0300
0380
0180
ENDCHAR
STARTCHAR bracketright
ENCODING 93
SWIDTH 614 0
DWIDTH 12 0
BBX 4 15 2 -1
BITMAP
f0
f0
30
30
30
30
30
30
30
30
30
30
30
f0
f0
ENDCHAR
STARTCHAR asciicircum
ENCODING 94
SWIDTH 614 0
DWIDTH 12 0
BBX 9 8 1 4
BITMAP
1c00
1c00
3600
3600
6700
6300
6300
c180
ENDCHAR
STARTCHAR underscore
ENCODING 95
SWIDTH 614 0
DWIDTH 12 0
BBX 13 2 -1 -2
BITMAP
fff8
fff8
ENDCHAR
STARTCHAR quoteleft
ENCODING 96
SWIDTH 614 0
DWIDTH 12 0
BBX 4 5 3 7
BITMAP
30
60
60
e0
e0
ENDCHAR
STARTCHAR a
ENCODING 97
SWIDTH 614 0
DWIDTH 12 0
BBX 10 9 1 1
BITMAP
3e00
7f00
4300
3f00
7f00
c300
c700
ffc0
7bc0
ENDCHAR
STARTCHAR b
ENCODING 98
SWIDTH 614 0
DWIDTH 12 0
BBX 11 12 0 1
BITMAP
e000
e000
6000
6f00
7f80
70c0
6060
6060
6060
70e0
ffc0
ef00
ENDCHAR
STARTCHAR c
ENCODING 99
SWIDTH 614 0
DWIDTH 12 0
BBX 10 9 1 1
BITMAP
1f80
7f80
6180
c180
c000
c000
e080
7f80
3e00
ENDCHAR
STARTCHAR d
ENCODING 100
SWIDTH 614 0
DWIDTH 12 0
BBX 10 12 1 1
BITMAP
0f80
0f80
0180
3d80
7f80
6380
c180
c180
c180
e380
7fc0
3fc0
ENDCHAR
STARTCHAR e
ENCODING 101
SWIDTH 614 0
DWIDTH 12 0
BBX 10 9 1 1
BITMAP
1e00
3f80
6380
c0c0
ffc0
ffc0
e040
7fc0
3f00
ENDCHAR
STARTCHAR f
ENCODING 102
SWIDTH 614 0
DWIDTH 12 0
BBX 8 12 2 1
BITMAP
3e
7e
60
fe
fe
60
60
60
60
60
fe
fe
ENDCHAR
STARTCHAR g
ENCODING 103
SWIDTH 614 0
DWIDTH 12 0
BBX 10 12 1 -2
BITMAP
3bc0
7fc0
e700
c300
c300
c300
e700
7f00
3f00
0300
3e00
3c00
ENDCHAR
STARTCHAR h
ENCODING 104
SWIDTH 614 0
DWIDTH 12 0
BBX 11 12 0 1
BITMAP
f000
f000
3000
3700
3f80
38c0
30c0
30c0
30c0
30c0
fbe0
fbe0
ENDCHAR
STARTCHAR i
ENCODING 105
SWIDTH 614 0
DWIDTH 12 0
BBX 8 14 2 1
BITMAP
18
18
18
00
00
f8
f8
18
18
18
18
18
ff
ff
ENDCHAR
STARTCHAR j
ENCODING 106
SWIDTH 614 0
DWIDTH 12 0
BBX 7 17 1 -2
BITMAP
0c
0c
0c
00
00
fe
fe
06
06
06
06
06
06
06
06
fc
78
ENDCHAR
STARTCHAR k
ENCODING 107
SWIDTH 614 0
DWIDTH 12 0
BBX 11 12 0 1
BITMAP
f000
7000
3000
37c0
37c0
3700
3e00
3e00
3700
3380
73e0
73e0
ENDCHAR
STARTCHAR l
ENCODING 108
SWIDTH 614 0
DWIDTH 12 0
BBX 8 12 2 1
BITMAP
38
f8
18
18
18
18
18
18
18
18
ff
ff
ENDCHAR
STARTCHAR m
ENCODING 109
SWIDTH 614 0
DWIDTH 12 0
BBX 12 9 0 1
BITMAP
fdc0
ffe0
6660
6660
6660
6660
6660
f770
f770
ENDCHAR
STARTCHAR n
ENCODING 110
SWIDTH 614 0
DWIDTH 12 0
BBX 11 9 0 1
BITMAP
f700
ff80
38c0
30c0
30c0
30c0
30c0
fbe0
fbe0
ENDCHAR
STARTCHAR o
ENCODING 111
SWIDTH 614 0
DWIDTH 12 0
BBX 10 9 1 1
BITMAP
3e00
7f80
e180
c0c0
c0c0
c0c0
e1c0
7f80
3e00
ENDCHAR
STARTCHAR p
ENCODING 112
SWIDTH 614 0
DWIDTH 12 0
BBX 11 12 0 -2
BITMAP
ff00
ffc0
38c0
3060
3060
3060
38e0
3fc0
3700
3000
fc00
fc00
ENDCHAR
STARTCHAR q
ENCODING 113
SWIDTH 614 0
DWIDTH 12 0
BBX 10 12 1 -2
BITMAP
3dc0
7fc0
e380
c180
c180
c180
e380
7f80
3d80
0180
0fc0
0fc0
ENDCHAR
STARTCHAR r
ENCODING 114
SWIDTH 614 0
DWIDTH 12 0
BBX 10 9 1 1
BITMAP
f380
ffc0
3c80
3000
3000
3000
3000
ff00
ff00
ENDCHAR
STARTCHAR s
ENCODING 115
SWIDTH 614 0
DWIDTH 12 0
BBX 9 9 1 1
BITMAP
3d00
7f00
c300
e000
7f00
0780
c180
ff80
de00
ENDCHAR
STARTCHAR t
ENCODING 116
SWIDTH 614 0
DWIDTH 12 0
BBX 9 11 2 1
BITMAP
6000
6000
fe00
fe00
6000
6000
6000
6000
6000
7f00
3e00
ENDCHAR
STARTCHAR u
ENCODING 117
SWIDTH 614 0
DWIDTH 12 0
BBX 11 9 0 1
BITMAP
f380
f380
3180
3180
3180
3180
3180
3fe0
1fe0
ENDCHAR
STARTCHAR v
ENCODING 118
SWIDTH 614 0
DWIDTH 12 0
BBX 11 9 0 1
BITMAP
f9e0
f9e0
3080
3180
1900
1b00
0f00
0e00
0600
ENDCHAR
STARTCHAR w
ENCODING 119
SWIDTH 614 0
DWIDTH 12 0
BBX 11 9 0 1
BITMAP
f1e0
f1e0
66c0
66c0
2e80
3b80
3b80
3980
1100
ENDCHAR
STARTCHAR x
ENCODING 120
SWIDTH 614 0
DWIDTH 12 0
BBX 11 9 0 1
BITMAP
79e0
79e0
1980
0e00
0f00
1f00
3180
f1e0
f1e0
ENDCHAR
STARTCHAR y
ENCODING 121
SWIDTH 614 0
DWIDTH 12 0
BBX 11 12 0 -2
BITMAP
f1e0
f1e0
30c0
3180
1900
1b00
0e00
0e00
0c00
0c00
fe00
fe00
ENDCHAR
STARTCHAR z
ENCODING 122
SWIDTH 614 0
DWIDTH 12 0
BBX 8 9 2 1
BITMAP
ff
ff
c6
cc
18
70
e3
ff
ff
ENDCHAR
STARTCHAR braceleft
ENCODING 123
SWIDTH 614 0
DWIDTH 12 0
BBX 5 15 4 -1
BITMAP
38
78
60
60
60
30
f0
f0
70
30
60
60
60
78
38
ENDCHAR
STARTCHAR bar
ENCODING 124
SWIDTH 614 0
DWIDTH 12 0
BBX 2 16 5 -2
BITMAP
c0
c0
c0
c0
c0
c0
c0
c0
c0
c0
c0
c0
c0
c0
c0
c0
ENDCHAR
STARTCHAR braceright
ENCODING 125
SWIDTH 614 0
DWIDTH 12 0
BBX 5 15 2 -1
BITMAP
e0
f0
30
30
30
30
38
18
30
30
30
30
30
f0
e0
ENDCHAR
STARTCHAR asciitilde
ENCODING 126
SWIDTH 614 0
DWIDTH 12 0
BBX 8 4 2 5
BITMAP
61
ff
9e
80
ENDCHAR
STARTCHAR space
ENCODING 160
SWIDTH 614 0
DWIDTH 12 0
BBX 0 0 0 1
BITMAP
ENDCHAR
STARTCHAR Aogonek
ENCODING 161
SWIDTH 614 0
DWIDTH 12 0
BBX 12 14 0 -2
BITMAP
3e00
3e00
0700
0b00
0980
1980
3fc0
3fc0
70e0
f9f0
f9f0
0180
01e0
00c0
ENDCHAR
STARTCHAR breve
ENCODING 162
SWIDTH 614 0
DWIDTH 12 0
BBX 7 4 2 10
BITMAP
c6
c6
7c
38
ENDCHAR
STARTCHAR Lslash
ENCODING 163
SWIDTH 614 0
DWIDTH 12 0
BBX 10 11 1 1
BITMAP
fc00
fc00
3200
3e00
3c00
7800
f0c0
70c0
30c0
ffc0
ffc0
ENDCHAR
STARTCHAR currency
ENCODING 164
SWIDTH 614 0
DWIDTH 12 0
BBX 9 9 1 2
BITMAP
4080
ff80
3f00
6180
6180
6380
7f80
fd80
4080
ENDCHAR
STARTCHAR Lcaron
ENCODING 165
SWIDTH 614 0
DWIDTH 12 0
BBX 11 12 1 1
BITMAP
01c0
ff80
fc00
3000
3000
3000
3000
30c0
30c0
30c0
ffc0
ffc0
ENDCHAR
STARTCHAR Sacute
ENCODING 166
SWIDTH 614 0
DWIDTH 12 0
BBX 9 15 1 1
BITMAP
0e00
1c00
0000
0000
3d00
7f80
e380
c180
f000
3f00
0380
6180
6180
7f00
7e00
ENDCHAR
STARTCHAR section
ENCODING 167
SWIDTH 614 0
DWIDTH 12 0
BBX 8 13 2 -1
BITMAP
3e
7e
66
70
fc
ce
e7
73
1f
ce
c6
fe
fc
ENDCHAR
STARTCHAR dieresis
ENCODING 168
SWIDTH 614 0
DWIDTH 12 0
BBX 5 2 3 11
BITMAP
d8
d8
ENDCHAR
STARTCHAR Scaron
ENCODING 169
SWIDTH 614 0
DWIDTH 12 0
BBX 9 15 1 1
BITMAP
3600
1c00
1c00
0000
3d00
7f80
e380
c180
f000
3f00
0380
6180
6180
7f00
7e00
ENDCHAR
STARTCHAR Scedilla
ENCODING 170
SWIDTH 614 0
DWIDTH 12 0
BBX 9 15 1 -3
BITMAP
3d00
7f80
c380
c180
f000
3f00
0380
6180
6180
7f00
7e00
0c00
0e00
1e00
0c00
ENDCHAR
STARTCHAR Tcaron
ENCODING 171
SWIDTH 614 0
DWIDTH 12 0
BBX 10 15 1 1
BITMAP
3600
1c00
1c00
0000
ffc0
ffc0
ccc0
ccc0
ccc0
0c00
0c00
0c00
0c00
3f00
3f00
ENDCHAR
STARTCHAR Zacute
ENCODING 172
SWIDTH 614 0
DWIDTH 12 0
BBX 9 15 1 1
BITMAP
0e00
1c00
0000
0000
ff80
ff80
c300
c600
0c00
1800
1980
3180
6180
ff80
ff80
ENDCHAR
STARTCHAR hyphen
ENCODING 173
SWIDTH 614 0
DWIDTH 12 0
BBX 4 2 4 6
BITMAP
f0
f0
ENDCHAR
STARTCHAR Zcaron
ENCODING 174
SWIDTH 614 0
DWIDTH 12 0
BBX 9 15 1 1
BITMAP
3600
1c00
1c00
0000
ff80
ff80
c300
c600
0c00
1800
1980
3180
6180
ff80
ff80
ENDCHAR
STARTCHAR Zdotaccent
ENCODING 175
SWIDTH 614 0
DWIDTH 12 0
BBX 9 15 1 1
BITMAP
0c00
0c00
0000
0000
ff80
ff80
c300
c600
0c00
1800
1980
3180
6180
ff80
ff80
ENDCHAR
STARTCHAR degree
ENCODING 176
SWIDTH 614 0
DWIDTH 12 0
BBX 7 6 2 7
BITMAP
38
7e
c6
c6
7c
38
ENDCHAR
STARTCHAR aogonek
ENCODING 177
SWIDTH 614 0
DWIDTH 12 0
BBX 10 12 1 -2
BITMAP
3e00
7f00
4300
3f00
7f00
c300
c700
ffc0
7bc0
0700
0780
0380
ENDCHAR
STARTCHAR ogonek
ENCODING 178
SWIDTH 614 0
DWIDTH 12 0
BBX 4 3 4 -2
BITMAP
60
d0
60
ENDCHAR
STARTCHAR lslash
ENCODING 179
SWIDTH 614 0
DWIDTH 12 0
BBX 8 12 2 1
BITMAP
38
f8
18
1a
1e
1c
78
f8
58
18
ff
ff
ENDCHAR
STARTCHAR acute
ENCODING 180
SWIDTH 614 0
DWIDTH 12 0
BBX 5 2 4 11
BITMAP
70
e0
ENDCHAR
STARTCHAR lcaron
ENCODING 181
SWIDTH 614 0
DWIDTH 12 0
BBX 10 12 2 1
BITMAP
3b80
ff00
1800
1800
1800
1800
1800
1800
1800
1800
ff00
ff00
ENDCHAR
STARTCHAR sacute
ENCODING 182
SWIDTH 614 0
DWIDTH 12 0
BBX 9 12 1 1
BITMAP
0e00
1c00
0000
3d00
7f00
c300
e000
7f00
0780
c180
ff80
de00
ENDCHAR
STARTCHAR caron
ENCODING 183
SWIDTH 614 0
DWIDTH 12 0
BBX 5 3 3 10
BITMAP
d8
70
30
ENDCHAR
STARTCHAR cedilla
ENCODING 184
SWIDTH 614 0
DWIDTH 12 0
BBX 5 5 4 -3
BITMAP
60
70
30
f0
f0
ENDCHAR
STARTCHAR scaron
ENCODING 185
SWIDTH 614 0
DWIDTH 12 0
BBX 9 12 1 1
BITMAP
3600
1c00
0c00
3d00
7f00
c300
e000
7f00
0780
c180
ff80
de00
ENDCHAR
STARTCHAR scedilla
ENCODING 186
SWIDTH 614 0
DWIDTH 12 0
BBX 9 13 1 -3
BITMAP
3d00
7f00
c300
e000
7f00
0780
c180
ff80
de00
0c00
0e00
1e00
0c00
ENDCHAR
STARTCHAR tcaron
ENCODING 187
SWIDTH 614 0
DWIDTH 12 0
BBX 9 12 2 1
BITMAP
0e00
7c00
6000
fe00
fe00
6000
6000
6000
6000
6000
7f00
3e00
ENDCHAR
STARTCHAR zacute
ENCODING 188
SWIDTH 614 0
DWIDTH 12 0
BBX 8 12 2 1
BITMAP
1c
38
00
ff
ff
c6
cc
18
70
e3
ff
ff
ENDCHAR
STARTCHAR hungarumlaut
ENCODING 189
SWIDTH 614 0
DWIDTH 12 0
BBX 7 2 3 11
BITMAP
2c
48
ENDCHAR
STARTCHAR zcaron
ENCODING 190
SWIDTH 614 0
DWIDTH 12 0
BBX 8 12 2 1
BITMAP
6c
38
18
ff
ff
c6
cc
18
70
e3
ff
ff
ENDCHAR
STARTCHAR zdotaccent
ENCODING 191
SWIDTH 614 0
DWIDTH 12 0
BBX 8 12 2 1
BITMAP
18
18
00
ff
ff
c6
cc
18
70
e3
ff
ff
ENDCHAR
STARTCHAR Racute
ENCODING 192
SWIDTH 614 0
DWIDTH 12 0
BBX 10 15 1 1
BITMAP
0e00
1c00
0000
0000
ff00
ff80
6180
6180
7f00
7c00
6600
6700
6300
f1c0
f1c0
ENDCHAR
STARTCHAR Aacute
ENCODING 193
SWIDTH 614 0
DWIDTH 12 0
BBX 12 15 0 1
BITMAP
0700
0e00
0000
0000
3e00
3e00
0700
0b00
0980
1980
3fc0
3fc0
70e0
f9f0
f9f0
ENDCHAR
STARTCHAR Acircumflex
ENCODING 194
SWIDTH 614 0
DWIDTH 12 0
BBX 12 15 0 1
BITMAP
0e00
1f00
0000
0000
3e00
3e00
0700
0b00
0980
1980
3fc0
3fc0
70e0
f9f0
f9f0
ENDCHAR
STARTCHAR Abreve
ENCODING 195
SWIDTH 614 0
DWIDTH 12 0
BBX 12 15 0 1
BITMAP
3180
1f00
0e00
0000
3e00
3e00
0700
0b00
0980
1980
3fc0
3fc0
70e0
f9f0
f9f0
ENDCHAR
STARTCHAR Adieresis
ENCODING 196
SWIDTH 614 0
DWIDTH 12 0
BBX 12 15 0 1
BITMAP
1b00
1b00
0000
0000
3e00
3e00
0700
0b00
0980
1980
3fc0
3fc0
70e0
f9f0
f9f0
ENDCHAR
STARTCHAR Lacute
ENCODING 197
SWIDTH 614 0
DWIDTH 12 0
BBX 10 15 1 1
BITMAP
3800
7000
0000
0000
fc00
fc00
3000
3000
3000
3000
30c0
30c0
30c0
ffc0
ffc0
ENDCHAR
STARTCHAR Cacute
ENCODING 198
SWIDTH 614 0
DWIDTH 12 0
BBX 11 15 1 1
BITMAP
0e00
1c00
0000
0000
1e80
7fc0
61c0
c0c0
c000
c000
c000
c000
60c0
3fc0
1f00
ENDCHAR
STARTCHAR Ccedilla
ENCODING 199
SWIDTH 614 0
DWIDTH 12 0
BBX 11 15 1 -3
BITMAP
1e80
7fc0
61c0
c0c0
c000
c000
c000
c000
60c0
3fc0
1f00
0600
0700
1f00
0e00
ENDCHAR
STARTCHAR Ccaron
ENCODING 200
SWIDTH 614 0
DWIDTH 12 0
BBX 11 15 1 1
BITMAP
1b00
0e00
0e00
0000
1e80
7fc0
61c0
c0c0
c000
c000
c000
c000
60c0
3fc0
1f00
ENDCHAR
STARTCHAR Eacute
ENCODING 201
SWIDTH 614 0
DWIDTH 12 0
BBX 10 15 1 1
BITMAP
0e00
1c00
0000
0000
ffc0
ffc0
60c0
66c0
7e80
7e00
6600
66c0
60c0
ffc0
ffc0
ENDCHAR
STARTCHAR Eogonek
ENCODING 202
SWIDTH 614 0
DWIDTH 12 0
BBX 10 14 1 -2
BITMAP
ffc0
ffc0
60c0
66c0
7e80
7e00
6600
66c0
60c0
ffc0
ffc0
0380
03c0
01c0
ENDCHAR
STARTCHAR Edieresis
ENCODING 203
SWIDTH 614 0
DWIDTH 12 0
BBX 10 15 1 1
BITMAP
3600
3600
0000
0000
ffc0
ffc0
60c0
66c0
7e80
7e00
6600
66c0
60c0
ffc0
ffc0
ENDCHAR
STARTCHAR Ecaron
ENCODING 204
SWIDTH 614 0
DWIDTH 12 0
BBX 10 15 1 1
BITMAP
3600
1c00
1c00
0000
ffc0
ffc0
60c0
66c0
7e80
7e00
6600
66c0
60c0
ffc0
ffc0
ENDCHAR
STARTCHAR Iacute
ENCODING 205
SWIDTH 614 0
DWIDTH 12 0
BBX 8 15 2 1
BITMAP
1c
38
00
00
ff
ff
18
18
18
18
18
18
18
ff
ff
ENDCHAR
STARTCHAR Icircumflex
ENCODING 206
SWIDTH 614 0
DWIDTH 12 0
BBX 8 15 2 1
BITMAP
38
7c
00
00
ff
ff
18
18
18
18
18
18
18
ff
ff
ENDCHAR
STARTCHAR Dcaron
ENCODING 207
SWIDTH 614 0
DWIDTH 12 0
BBX 11 15 0 1
BITMAP
1b00
0e00
0e00
0000
ff00
ffc0
30c0
3060
3060
3060
3060
3060
30c0
ffc0
ff00
ENDCHAR
STARTCHAR Eth
ENCODING 208
SWIDTH 614 0
DWIDTH 12 0
BBX 11 11 0 1
BITMAP
ff00
ffc0
30c0
3060
fc60
fc60
3060
3060
30c0
ffc0
ff00
ENDCHAR
STARTCHAR Nacute
ENCODING 209
SWIDTH 614 0
DWIDTH 12 0
BBX 11 15 0 1
BITMAP
0700
0e00
0000
0000
f1e0
f9e0
78c0
6cc0
6cc0
66c0
66c0
63c0
61c0
f9c0
f8c0
ENDCHAR
STARTCHAR Ncaron
ENCODING 210
SWIDTH 614 0
DWIDTH 12 0
BBX 11 15 0 1
BITMAP
1b00
0e00
0e00
0000
f1e0
f9e0
78c0
6cc0
6cc0
66c0
66c0
63c0
61c0
f9c0
f8c0
ENDCHAR
STARTCHAR Oacute
ENCODING 211
SWIDTH 614 0
DWIDTH 12 0
BBX 11 15 0 1
BITMAP
0700
0e00
0000
0000
1f00
3f80
70c0
e0e0
c060
c060
c060
e0e0
71c0
3f80
1f00
ENDCHAR
STARTCHAR Ocircumflex
ENCODING 212
SWIDTH 614 0
DWIDTH 12 0
BBX 11 15 0 1
BITMAP
0e00
1f00
0000
0000
1f00
3f80
70c0
e0e0
c060
c060
c060
e0e0
71c0
3f80
1f00
ENDCHAR
STARTCHAR Ohungarumlaut
ENCODING 213
SWIDTH 614 0
DWIDTH 12 0
BBX 11 15 0 1
BITMAP
0580
0900
0000
0000
1f00
3f80
70c0
e0e0
c060
c060
c060
e0e0
71c0
3f80
1f00
ENDCHAR
STARTCHAR Odieresis
ENCODING 214
SWIDTH 614 0
DWIDTH 12 0
BBX 11 15 0 1
BITMAP
1b00
1b00
0000
0000
1f00
3f80
70c0
e0e0
c060
c060
c060
e0e0
71c0
3f80
1f00
ENDCHAR
STARTCHAR multiply
ENCODING 215
SWIDTH 614 0
DWIDTH 12 0
BBX 8 8 2 3
BITMAP
42
e7
7e
3c
3c
7e
e7
42
ENDCHAR
STARTCHAR Rcaron
ENCODING 216
SWIDTH 614 0
DWIDTH 12 0
BBX 10 15 1 1
BITMAP
3600
1c00
1c00
0000
ff00
ff80
6180
6180
7f00
7c00
6600
6700
6300
f1c0
f1c0
ENDCHAR
STARTCHAR Uring
ENCODING 217
SWIDTH 614 0
DWIDTH 12 0
BBX 11 16 0 1
BITMAP
0600
0f00
0f00
0600
0000
fbe0
fbe0
60c0
60c0
60c0
60c0
60c0
60c0
71c0
3f80
1f00
ENDCHAR
STARTCHAR Uacute
ENCODING 218
SWIDTH 614 0
DWIDTH 12 0
BBX 11 15 0 1
BITMAP
0700
0e00
0000
0000
fbe0
fbe0
60c0
60c0
60c0
60c0
60c0
60c0
71c0
3f80
1f00
ENDCHAR
STARTCHAR Uhungarumlaut
ENCODING 219
SWIDTH 614 0
DWIDTH 12 0
BBX 11 15 0 1
BITMAP
0580
0900
0000
0000
fbe0
fbe0
60c0
60c0
60c0
60c0
60c0
60c0
71c0
3f80
1f00
ENDCHAR
STARTCHAR Udieresis
ENCODING 220
SWIDTH 614 0
DWIDTH 12 0
BBX 11 15 0 1
BITMAP
1b00
1b00
0000
0000
fbe0
fbe0
60c0
60c0
60c0
60c0
60c0
60c0
71c0
3f80
1f00
ENDCHAR
STARTCHAR Yacute
ENCODING 221
SWIDTH 614 0
DWIDTH 12 0
BBX 10 15 1 1
BITMAP
0e00
1c00
0000
0000
f3c0
f3c0
2100
3300
1e00
1e00
0c00
0c00
0c00
3f00
3f00
ENDCHAR
STARTCHAR Tcedilla
ENCODING 222
SWIDTH 614 0
DWIDTH 12 0
BBX 10 15 1 -3
BITMAP
ffc0
ffc0
8cc0
8cc0
8cc0
0c00
0c00
0c00
0c00
3f00
3f00
1c00
0e00
3e00
1c00
ENDCHAR
STARTCHAR germandbls
ENCODING 223
SWIDTH 614 0
DWIDTH 12 0
BBX 9 12 1 1
BITMAP
1e00
3f00
6300
6300
6e00
6f00
6380
6180
6180
6180
ef80
e700
ENDCHAR
STARTCHAR racute
ENCODING 224
SWIDTH 614 0
DWIDTH 12 0
BBX 10 12 1 1
BITMAP
0e00
1c00
0000
f380
ffc0
3c80
3000
3000
3000
3000
ff00
ff00
ENDCHAR
STARTCHAR aacute
ENCODING 225
SWIDTH 614 0
DWIDTH 12 0
BBX 10 12 1 1
BITMAP
0e00
1c00
0000
3e00
7f00
4300
3f00
7f00
c300
c700
ffc0
7bc0
ENDCHAR
STARTCHAR acircumflex
ENCODING 226
SWIDTH 614 0
DWIDTH 12 0
BBX 10 13 1 1
BITMAP
1c00
1c00
3600
0000
3e00
7f00
4300
3f00
7f00
c300
c700
ffc0
7bc0
ENDCHAR
STARTCHAR abreve
ENCODING 227
SWIDTH 614 0
DWIDTH 12 0
BBX 10 13 1 1
BITMAP
6300
6300
3e00
1c00
3e00
7f00
4300
3f00
7f00
c300
c700
ffc0
7bc0
ENDCHAR
STARTCHAR adieresis
ENCODING 228
SWIDTH 614 0
DWIDTH 12 0
BBX 10 12 1 1
BITMAP
3600
3600
0000
3e00
7f00
4300
3f00
7f00
c300
c700
ffc0
7bc0
ENDCHAR
STARTCHAR lacute
ENCODING 229
SWIDTH 614 0
DWIDTH 12 0
BBX 8 16 2 1
BITMAP
1c
38
00
00
38
f8
18
18
18
18
18
18
18
18
ff
ff
ENDCHAR
STARTCHAR cacute
ENCODING 230
SWIDTH 614 0
DWIDTH 12 0
BBX 10 12 1 1
BITMAP
0e00
1c00
0000
1f80
7f80
6180
c180
c000
c000
e080
7f80
3e00
ENDCHAR
STARTCHAR ccedilla
ENCODING 231
SWIDTH 614 0
DWIDTH 12 0
BBX 10 13 1 -3
BITMAP
3e80
7f80
e180
c180
c000
c000
e080
7f80
3f00
0c00
0e00
1e00
0c00
ENDCHAR
STARTCHAR ccaron
ENCODING 232
SWIDTH 614 0
DWIDTH 12 0
BBX 10 12 1 1
BITMAP
1b00
0e00
0600
1f80
7f80
6180
c180
c000
c000
e080
7f80
3e00
ENDCHAR
STARTCHAR eacute
ENCODING 233
SWIDTH 614 0
DWIDTH 12 0
BBX 10 12 1 1
BITMAP
0e00
1c00
0000
1e00
3f80
6380
c0c0
ffc0
ffc0
e040
7fc0
3f00
ENDCHAR
STARTCHAR eogonek
ENCODING 234
SWIDTH 614 0
DWIDTH 12 0
BBX 10 12 1 -2
BITMAP
3e00
7f80
4180
ff80
ff80
c000
6040
7fc0
3f00
1c00
1e00
0e00
ENDCHAR
STARTCHAR edieresis
ENCODING 235
SWIDTH 614 0
DWIDTH 12 0
BBX 10 12 1 1
BITMAP
3600
3600
0000
1e00
3f80
6380
c0c0
ffc0
ffc0
e040
7fc0
3f00
ENDCHAR
STARTCHAR ecaron
ENCODING 236
SWIDTH 614 0
DWIDTH 12 0
BBX 10 12 1 1
BITMAP
3600
1c00
0c00
1e00
3f80
6380
c0c0
ffc0
ffc0
e040
7fc0
3f00
ENDCHAR
STARTCHAR iacute
ENCODING 237
SWIDTH 614 0
DWIDTH 12 0
BBX 8 12 2 1
BITMAP
1c
38
00
f8
f8
18
18
18
18
18
ff
ff
ENDCHAR
STARTCHAR icircumflex
ENCODING 238
SWIDTH 614 0
DWIDTH 12 0
BBX 8 13 2 1
BITMAP
38
38
6c
00
f8
f8
18
18
18
18
18
ff
ff
ENDCHAR
STARTCHAR dcaron
ENCODING 239
SWIDTH 614 0
DWIDTH 12 0
BBX 13 12 1 1
BITMAP
0ff0
0fe0
0180
3d80
7f80
6380
c180
c180
c180
e380
7fc0
3fc0
ENDCHAR
STARTCHAR dbar
ENCODING 240
SWIDTH 614 0
DWIDTH 12 0
BBX 10 12 1 1
BITMAP
0f80
0980
1fc0
3fc0
7f80
6380
c180
c180
c180
c380
7fc0
3dc0
ENDCHAR
STARTCHAR nacute
ENCODING 241
SWIDTH 614 0
DWIDTH 12 0
BBX 11 12 0 1
BITMAP
0700
0e00
0000
f700
ff80
38c0
30c0
30c0
30c0
30c0
fbe0
fbe0
ENDCHAR
STARTCHAR ncaron
ENCODING 242
SWIDTH 614 0
DWIDTH 12 0
BBX 11 12 0 1
BITMAP
1b00
0e00
0600
f700
ff80
38c0
30c0
30c0
30c0
30c0
fbe0
fbe0
ENDCHAR
STARTCHAR oacute
ENCODING 243
SWIDTH 614 0
DWIDTH 12 0
BBX 10 12 1 1
BITMAP
0e00
1c00
0000
3e00
7f80
e180
c0c0
c0c0
c0c0
e1c0
7f80
3e00
ENDCHAR
STARTCHAR ocircumflex
ENCODING 244
SWIDTH 614 0
DWIDTH 12 0
BBX 10 13 1 1
BITMAP
1c00
1c00
3600
0000
3e00
7f80
e180
c0c0
c0c0
c0c0
e1c0
7f80
3e00
ENDCHAR
STARTCHAR ohungarumlaut
ENCODING 245
SWIDTH 614 0
DWIDTH 12 0
BBX 10 12 1 1
BITMAP
0b00
1200
0000
3e00
7f80
e180
c0c0
c0c0
c0c0
e1c0
7f80
3e00
ENDCHAR
STARTCHAR odieresis
ENCODING 246
SWIDTH 614 0
DWIDTH 12 0
BBX 10 12 1 1
BITMAP
3600
3600
0000
3e00
7f80
e180
c0c0
c0c0
c0c0
e1c0
7f80
3e00
ENDCHAR
STARTCHAR divide
ENCODING 247
SWIDTH 614 0
DWIDTH 12 0
BBX 9 8 1 3
BITMAP
0c00
0c00
0000
ff80
ff80
0000
0c00
0c00
ENDCHAR
STARTCHAR rcaron
ENCODING 248
SWIDTH 614 0
DWIDTH 12 0
BBX 10 12 1 1
BITMAP
3600
1c00
0c00
f380
ffc0
3c80
3000
3000
3000
3000
ff00
ff00
ENDCHAR
STARTCHAR uring
ENCODING 249
SWIDTH 614 0
DWIDTH 12 0
BBX 11 14 0 1
BITMAP
0600
0f00
0f00
0f00
0600
f380
f380
3180
3180
3180
3180
3180
3fe0
1fe0
ENDCHAR
STARTCHAR uacute
ENCODING 250
SWIDTH 614 0
DWIDTH 12 0
BBX 11 12 0 1
BITMAP
0700
0e00
0000
f380
f380
3180
3180
3180
3180
3180
3fe0
1fe0
ENDCHAR
STARTCHAR uhungarumlaut
ENCODING 251
SWIDTH 614 0
DWIDTH 12 0
BBX 11 12 0 1
BITMAP
0580
0900
0000
f380
f380
3180
3180
3180
3180
3180
3fe0
1fe0
ENDCHAR
STARTCHAR udieresis
ENCODING 252
SWIDTH 614 0
DWIDTH 12 0
BBX 11 12 0 1
BITMAP
1b00
1b00
0000
f380
f380
3180
3180
3180
3180
3180
3fe0
1fe0
ENDCHAR
STARTCHAR yacute
ENCODING 253
SWIDTH 614 0
DWIDTH 12 0
BBX 11 15 0 -2
BITMAP
0700
0e00
0000
f1e0
f1e0
30c0
3180
1900
1b00
0e00
0e00
0c00
0c00
fe00
fe00
ENDCHAR
STARTCHAR tcedilla
ENCODING 254
SWIDTH 614 0
DWIDTH 12 0
BBX 9 15 2 -3
BITMAP
6000
6000
fe00
fe00
6000
6000
6000
6000
6000
6700
3e00
1800
0c00
3c00
1c00
ENDCHAR
STARTCHAR dotaccent
ENCODING 255
SWIDTH 614 0
DWIDTH 12 0
BBX 2 2 5 11
BITMAP
c0
c0
ENDCHAR
ENDFONT
